<?xml version="1.0" encoding="us-ascii" standalone="no"?><svg xmlns="http://www.w3.org/2000/svg" xmlns:xlink="http://www.w3.org/1999/xlink" contentStyleType="text/css" height="386px" preserveAspectRatio="none" style="width:523px;height:386px;background:#FFFFFF;" version="1.1" viewBox="0 0 523 386" width="523px" zoomAndPan="magnify"><defs/><g><!--class Strategy--><g id="elem_Strategy"><rect codeLine="2" fill="#F1F1F1" height="48" id="Strategy" rx="2.5" ry="2.5" style="stroke:#181818;stroke-width:0.5;" width="85" x="101.5" y="223"/><ellipse cx="116.5" cy="239" fill="#ADD1B2" rx="11" ry="11" style="stroke:#181818;stroke-width:1.0;"/><path d="M119.2656,234.875 Q119.4219,234.6563 119.6094,234.5469 Q119.7969,234.4375 120.0156,234.4375 Q120.3906,234.4375 120.625,234.6953 Q120.8594,234.9531 120.8594,235.5625 L120.8594,237.0156 Q120.8594,237.625 120.625,237.8906 Q120.3906,238.1563 120.0156,238.1563 Q119.6719,238.1563 119.4688,237.9531 Q119.2656,237.7656 119.1563,237.25 Q119.1094,236.8906 118.9219,236.7031 Q118.5938,236.3281 117.9844,236.1094 Q117.375,235.8906 116.75,235.8906 Q115.9844,235.8906 115.3516,236.2188 Q114.7188,236.5469 114.2266,237.2969 Q113.7344,238.0469 113.7344,239.0781 L113.7344,240.1719 Q113.7344,241.4063 114.625,242.2266 Q115.5156,243.0469 117.1094,243.0469 Q118.0469,243.0469 118.7031,242.7969 Q119.0938,242.6406 119.5156,242.2031 Q119.7813,241.9375 119.9297,241.8594 Q120.0781,241.7813 120.2813,241.7813 Q120.6094,241.7813 120.8672,242.0391 Q121.125,242.2969 121.125,242.6406 Q121.125,242.9844 120.7813,243.3906 Q120.2813,243.9688 119.4844,244.2969 Q118.4063,244.75 117.1094,244.75 Q115.5938,244.75 114.3906,244.125 Q113.4063,243.625 112.7188,242.5547 Q112.0313,241.4844 112.0313,240.2031 L112.0313,239.0469 Q112.0313,237.7188 112.6484,236.5703 Q113.2656,235.4219 114.3594,234.8047 Q115.4531,234.1875 116.6875,234.1875 Q117.4219,234.1875 118.0703,234.3516 Q118.7188,234.5156 119.2656,234.875 Z " fill="#000000"/><text fill="#000000" font-family="sans-serif" font-size="14" lengthAdjust="spacing" textLength="53" x="130.5" y="244.7285">Strategy</text><line style="stroke:#181818;stroke-width:0.5;" x1="102.5" x2="185.5" y1="255" y2="255"/><line style="stroke:#181818;stroke-width:0.5;" x1="102.5" x2="185.5" y1="263" y2="263"/></g><!--class Smuggle-and-seek Game--><g id="elem_Smuggle-and-seek Game"><rect fill="#F1F1F1" height="48" id="Smuggle-and-seek Game" rx="2.5" ry="2.5" style="stroke:#181818;stroke-width:0.5;" width="193" x="101.5" y="7"/><ellipse cx="116.5" cy="23" fill="#ADD1B2" rx="11" ry="11" style="stroke:#181818;stroke-width:1.0;"/><path d="M119.2656,18.875 Q119.4219,18.6563 119.6094,18.5469 Q119.7969,18.4375 120.0156,18.4375 Q120.3906,18.4375 120.625,18.6953 Q120.8594,18.9531 120.8594,19.5625 L120.8594,21.0156 Q120.8594,21.625 120.625,21.8906 Q120.3906,22.1563 120.0156,22.1563 Q119.6719,22.1563 119.4688,21.9531 Q119.2656,21.7656 119.1563,21.25 Q119.1094,20.8906 118.9219,20.7031 Q118.5938,20.3281 117.9844,20.1094 Q117.375,19.8906 116.75,19.8906 Q115.9844,19.8906 115.3516,20.2188 Q114.7188,20.5469 114.2266,21.2969 Q113.7344,22.0469 113.7344,23.0781 L113.7344,24.1719 Q113.7344,25.4063 114.625,26.2266 Q115.5156,27.0469 117.1094,27.0469 Q118.0469,27.0469 118.7031,26.7969 Q119.0938,26.6406 119.5156,26.2031 Q119.7813,25.9375 119.9297,25.8594 Q120.0781,25.7813 120.2813,25.7813 Q120.6094,25.7813 120.8672,26.0391 Q121.125,26.2969 121.125,26.6406 Q121.125,26.9844 120.7813,27.3906 Q120.2813,27.9688 119.4844,28.2969 Q118.4063,28.75 117.1094,28.75 Q115.5938,28.75 114.3906,28.125 Q113.4063,27.625 112.7188,26.5547 Q112.0313,25.4844 112.0313,24.2031 L112.0313,23.0469 Q112.0313,21.7188 112.6484,20.5703 Q113.2656,19.4219 114.3594,18.8047 Q115.4531,18.1875 116.6875,18.1875 Q117.4219,18.1875 118.0703,18.3516 Q118.7188,18.5156 119.2656,18.875 Z " fill="#000000"/><text fill="#000000" font-family="sans-serif" font-size="14" lengthAdjust="spacing" textLength="161" x="130.5" y="28.7285">Smuggle-and-seek Game</text><line style="stroke:#181818;stroke-width:0.5;" x1="102.5" x2="293.5" y1="39" y2="39"/><line style="stroke:#181818;stroke-width:0.5;" x1="102.5" x2="293.5" y1="47" y2="47"/></g><!--class Container--><g id="elem_Container"><rect fill="#F1F1F1" height="48" id="Container" rx="2.5" ry="2.5" style="stroke:#181818;stroke-width:0.5;" width="94" x="61" y="115"/><ellipse cx="76" cy="131" fill="#ADD1B2" rx="11" ry="11" style="stroke:#181818;stroke-width:1.0;"/><path d="M78.7656,126.875 Q78.9219,126.6563 79.1094,126.5469 Q79.2969,126.4375 79.5156,126.4375 Q79.8906,126.4375 80.125,126.6953 Q80.3594,126.9531 80.3594,127.5625 L80.3594,129.0156 Q80.3594,129.625 80.125,129.8906 Q79.8906,130.1563 79.5156,130.1563 Q79.1719,130.1563 78.9688,129.9531 Q78.7656,129.7656 78.6563,129.25 Q78.6094,128.8906 78.4219,128.7031 Q78.0938,128.3281 77.4844,128.1094 Q76.875,127.8906 76.25,127.8906 Q75.4844,127.8906 74.8516,128.2188 Q74.2188,128.5469 73.7266,129.2969 Q73.2344,130.0469 73.2344,131.0781 L73.2344,132.1719 Q73.2344,133.4063 74.125,134.2266 Q75.0156,135.0469 76.6094,135.0469 Q77.5469,135.0469 78.2031,134.7969 Q78.5938,134.6406 79.0156,134.2031 Q79.2813,133.9375 79.4297,133.8594 Q79.5781,133.7813 79.7813,133.7813 Q80.1094,133.7813 80.3672,134.0391 Q80.625,134.2969 80.625,134.6406 Q80.625,134.9844 80.2813,135.3906 Q79.7813,135.9688 78.9844,136.2969 Q77.9063,136.75 76.6094,136.75 Q75.0938,136.75 73.8906,136.125 Q72.9063,135.625 72.2188,134.5547 Q71.5313,133.4844 71.5313,132.2031 L71.5313,131.0469 Q71.5313,129.7188 72.1484,128.5703 Q72.7656,127.4219 73.8594,126.8047 Q74.9531,126.1875 76.1875,126.1875 Q76.9219,126.1875 77.5703,126.3516 Q78.2188,126.5156 78.7656,126.875 Z " fill="#000000"/><text fill="#000000" font-family="sans-serif" font-size="14" lengthAdjust="spacing" textLength="62" x="90" y="136.7285">Container</text><line style="stroke:#181818;stroke-width:0.5;" x1="62" x2="154" y1="147" y2="147"/><line style="stroke:#181818;stroke-width:0.5;" x1="62" x2="154" y1="155" y2="155"/></g><!--class Smuggle-and-seek Player--><g id="elem_Smuggle-and-seek Player"><rect fill="#F1F1F1" height="48" id="Smuggle-and-seek Player" rx="2.5" ry="2.5" style="stroke:#181818;stroke-width:0.5;" width="195" x="190.5" y="115"/><ellipse cx="205.5" cy="131" fill="#ADD1B2" rx="11" ry="11" style="stroke:#181818;stroke-width:1.0;"/><path d="M208.2656,126.875 Q208.4219,126.6563 208.6094,126.5469 Q208.7969,126.4375 209.0156,126.4375 Q209.3906,126.4375 209.625,126.6953 Q209.8594,126.9531 209.8594,127.5625 L209.8594,129.0156 Q209.8594,129.625 209.625,129.8906 Q209.3906,130.1563 209.0156,130.1563 Q208.6719,130.1563 208.4688,129.9531 Q208.2656,129.7656 208.1563,129.25 Q208.1094,128.8906 207.9219,128.7031 Q207.5938,128.3281 206.9844,128.1094 Q206.375,127.8906 205.75,127.8906 Q204.9844,127.8906 204.3516,128.2188 Q203.7188,128.5469 203.2266,129.2969 Q202.7344,130.0469 202.7344,131.0781 L202.7344,132.1719 Q202.7344,133.4063 203.625,134.2266 Q204.5156,135.0469 206.1094,135.0469 Q207.0469,135.0469 207.7031,134.7969 Q208.0938,134.6406 208.5156,134.2031 Q208.7813,133.9375 208.9297,133.8594 Q209.0781,133.7813 209.2813,133.7813 Q209.6094,133.7813 209.8672,134.0391 Q210.125,134.2969 210.125,134.6406 Q210.125,134.9844 209.7813,135.3906 Q209.2813,135.9688 208.4844,136.2969 Q207.4063,136.75 206.1094,136.75 Q204.5938,136.75 203.3906,136.125 Q202.4063,135.625 201.7188,134.5547 Q201.0313,133.4844 201.0313,132.2031 L201.0313,131.0469 Q201.0313,129.7188 201.6484,128.5703 Q202.2656,127.4219 203.3594,126.8047 Q204.4531,126.1875 205.6875,126.1875 Q206.4219,126.1875 207.0703,126.3516 Q207.7188,126.5156 208.2656,126.875 Z " fill="#000000"/><text fill="#000000" font-family="sans-serif" font-size="14" lengthAdjust="spacing" textLength="163" x="219.5" y="136.7285">Smuggle-and-seek Player</text><line style="stroke:#181818;stroke-width:0.5;" x1="191.5" x2="384.5" y1="147" y2="147"/><line style="stroke:#181818;stroke-width:0.5;" x1="191.5" x2="384.5" y1="155" y2="155"/></g><!--class Smuggler agent--><g id="elem_Smuggler agent"><rect fill="#F1F1F1" height="48" id="Smuggler agent" rx="2.5" ry="2.5" style="stroke:#181818;stroke-width:0.5;" width="132" x="222" y="223"/><ellipse cx="237" cy="239" fill="#ADD1B2" rx="11" ry="11" style="stroke:#181818;stroke-width:1.0;"/><path d="M239.7656,234.875 Q239.9219,234.6563 240.1094,234.5469 Q240.2969,234.4375 240.5156,234.4375 Q240.8906,234.4375 241.125,234.6953 Q241.3594,234.9531 241.3594,235.5625 L241.3594,237.0156 Q241.3594,237.625 241.125,237.8906 Q240.8906,238.1563 240.5156,238.1563 Q240.1719,238.1563 239.9688,237.9531 Q239.7656,237.7656 239.6563,237.25 Q239.6094,236.8906 239.4219,236.7031 Q239.0938,236.3281 238.4844,236.1094 Q237.875,235.8906 237.25,235.8906 Q236.4844,235.8906 235.8516,236.2188 Q235.2188,236.5469 234.7266,237.2969 Q234.2344,238.0469 234.2344,239.0781 L234.2344,240.1719 Q234.2344,241.4063 235.125,242.2266 Q236.0156,243.0469 237.6094,243.0469 Q238.5469,243.0469 239.2031,242.7969 Q239.5938,242.6406 240.0156,242.2031 Q240.2813,241.9375 240.4297,241.8594 Q240.5781,241.7813 240.7813,241.7813 Q241.1094,241.7813 241.3672,242.0391 Q241.625,242.2969 241.625,242.6406 Q241.625,242.9844 241.2813,243.3906 Q240.7813,243.9688 239.9844,244.2969 Q238.9063,244.75 237.6094,244.75 Q236.0938,244.75 234.8906,244.125 Q233.9063,243.625 233.2188,242.5547 Q232.5313,241.4844 232.5313,240.2031 L232.5313,239.0469 Q232.5313,237.7188 233.1484,236.5703 Q233.7656,235.4219 234.8594,234.8047 Q235.9531,234.1875 237.1875,234.1875 Q237.9219,234.1875 238.5703,234.3516 Q239.2188,234.5156 239.7656,234.875 Z " fill="#000000"/><text fill="#000000" font-family="sans-serif" font-size="14" lengthAdjust="spacing" textLength="100" x="251" y="244.7285">Smuggler agent</text><line style="stroke:#181818;stroke-width:0.5;" x1="223" x2="353" y1="255" y2="255"/><line style="stroke:#181818;stroke-width:0.5;" x1="223" x2="353" y1="263" y2="263"/></g><!--class Customs agent--><g id="elem_Customs agent"><rect fill="#F1F1F1" height="48" id="Customs agent" rx="2.5" ry="2.5" style="stroke:#181818;stroke-width:0.5;" width="127" x="389.5" y="223"/><ellipse cx="404.5" cy="239" fill="#ADD1B2" rx="11" ry="11" style="stroke:#181818;stroke-width:1.0;"/><path d="M407.2656,234.875 Q407.4219,234.6563 407.6094,234.5469 Q407.7969,234.4375 408.0156,234.4375 Q408.3906,234.4375 408.625,234.6953 Q408.8594,234.9531 408.8594,235.5625 L408.8594,237.0156 Q408.8594,237.625 408.625,237.8906 Q408.3906,238.1563 408.0156,238.1563 Q407.6719,238.1563 407.4688,237.9531 Q407.2656,237.7656 407.1563,237.25 Q407.1094,236.8906 406.9219,236.7031 Q406.5938,236.3281 405.9844,236.1094 Q405.375,235.8906 404.75,235.8906 Q403.9844,235.8906 403.3516,236.2188 Q402.7188,236.5469 402.2266,237.2969 Q401.7344,238.0469 401.7344,239.0781 L401.7344,240.1719 Q401.7344,241.4063 402.625,242.2266 Q403.5156,243.0469 405.1094,243.0469 Q406.0469,243.0469 406.7031,242.7969 Q407.0938,242.6406 407.5156,242.2031 Q407.7813,241.9375 407.9297,241.8594 Q408.0781,241.7813 408.2813,241.7813 Q408.6094,241.7813 408.8672,242.0391 Q409.125,242.2969 409.125,242.6406 Q409.125,242.9844 408.7813,243.3906 Q408.2813,243.9688 407.4844,244.2969 Q406.4063,244.75 405.1094,244.75 Q403.5938,244.75 402.3906,244.125 Q401.4063,243.625 400.7188,242.5547 Q400.0313,241.4844 400.0313,240.2031 L400.0313,239.0469 Q400.0313,237.7188 400.6484,236.5703 Q401.2656,235.4219 402.3594,234.8047 Q403.4531,234.1875 404.6875,234.1875 Q405.4219,234.1875 406.0703,234.3516 Q406.7188,234.5156 407.2656,234.875 Z " fill="#000000"/><text fill="#000000" font-family="sans-serif" font-size="14" lengthAdjust="spacing" textLength="95" x="418.5" y="244.7285">Customs agent</text><line style="stroke:#181818;stroke-width:0.5;" x1="390.5" x2="515.5" y1="255" y2="255"/><line style="stroke:#181818;stroke-width:0.5;" x1="390.5" x2="515.5" y1="263" y2="263"/></g><!--class ToM0--><g id="elem_ToM0"><rect fill="#F1F1F1" height="48" id="ToM0" rx="2.5" ry="2.5" style="stroke:#181818;stroke-width:0.5;" width="68" x="7" y="331"/><ellipse cx="22" cy="347" fill="#ADD1B2" rx="11" ry="11" style="stroke:#181818;stroke-width:1.0;"/><path d="M24.7656,342.875 Q24.9219,342.6563 25.1094,342.5469 Q25.2969,342.4375 25.5156,342.4375 Q25.8906,342.4375 26.125,342.6953 Q26.3594,342.9531 26.3594,343.5625 L26.3594,345.0156 Q26.3594,345.625 26.125,345.8906 Q25.8906,346.1563 25.5156,346.1563 Q25.1719,346.1563 24.9688,345.9531 Q24.7656,345.7656 24.6563,345.25 Q24.6094,344.8906 24.4219,344.7031 Q24.0938,344.3281 23.4844,344.1094 Q22.875,343.8906 22.25,343.8906 Q21.4844,343.8906 20.8516,344.2188 Q20.2188,344.5469 19.7266,345.2969 Q19.2344,346.0469 19.2344,347.0781 L19.2344,348.1719 Q19.2344,349.4063 20.125,350.2266 Q21.0156,351.0469 22.6094,351.0469 Q23.5469,351.0469 24.2031,350.7969 Q24.5938,350.6406 25.0156,350.2031 Q25.2813,349.9375 25.4297,349.8594 Q25.5781,349.7813 25.7813,349.7813 Q26.1094,349.7813 26.3672,350.0391 Q26.625,350.2969 26.625,350.6406 Q26.625,350.9844 26.2813,351.3906 Q25.7813,351.9688 24.9844,352.2969 Q23.9063,352.75 22.6094,352.75 Q21.0938,352.75 19.8906,352.125 Q18.9063,351.625 18.2188,350.5547 Q17.5313,349.4844 17.5313,348.2031 L17.5313,347.0469 Q17.5313,345.7188 18.1484,344.5703 Q18.7656,343.4219 19.8594,342.8047 Q20.9531,342.1875 22.1875,342.1875 Q22.9219,342.1875 23.5703,342.3516 Q24.2188,342.5156 24.7656,342.875 Z " fill="#000000"/><text fill="#000000" font-family="sans-serif" font-size="14" lengthAdjust="spacing" textLength="36" x="36" y="352.7285">ToM0</text><line style="stroke:#181818;stroke-width:0.5;" x1="8" x2="74" y1="363" y2="363"/><line style="stroke:#181818;stroke-width:0.5;" x1="8" x2="74" y1="371" y2="371"/></g><!--class ToM1--><g id="elem_ToM1"><rect fill="#F1F1F1" height="48" id="ToM1" rx="2.5" ry="2.5" style="stroke:#181818;stroke-width:0.5;" width="68" x="110" y="331"/><ellipse cx="125" cy="347" fill="#ADD1B2" rx="11" ry="11" style="stroke:#181818;stroke-width:1.0;"/><path d="M127.7656,342.875 Q127.9219,342.6563 128.1094,342.5469 Q128.2969,342.4375 128.5156,342.4375 Q128.8906,342.4375 129.125,342.6953 Q129.3594,342.9531 129.3594,343.5625 L129.3594,345.0156 Q129.3594,345.625 129.125,345.8906 Q128.8906,346.1563 128.5156,346.1563 Q128.1719,346.1563 127.9688,345.9531 Q127.7656,345.7656 127.6563,345.25 Q127.6094,344.8906 127.4219,344.7031 Q127.0938,344.3281 126.4844,344.1094 Q125.875,343.8906 125.25,343.8906 Q124.4844,343.8906 123.8516,344.2188 Q123.2188,344.5469 122.7266,345.2969 Q122.2344,346.0469 122.2344,347.0781 L122.2344,348.1719 Q122.2344,349.4063 123.125,350.2266 Q124.0156,351.0469 125.6094,351.0469 Q126.5469,351.0469 127.2031,350.7969 Q127.5938,350.6406 128.0156,350.2031 Q128.2813,349.9375 128.4297,349.8594 Q128.5781,349.7813 128.7813,349.7813 Q129.1094,349.7813 129.3672,350.0391 Q129.625,350.2969 129.625,350.6406 Q129.625,350.9844 129.2813,351.3906 Q128.7813,351.9688 127.9844,352.2969 Q126.9063,352.75 125.6094,352.75 Q124.0938,352.75 122.8906,352.125 Q121.9063,351.625 121.2188,350.5547 Q120.5313,349.4844 120.5313,348.2031 L120.5313,347.0469 Q120.5313,345.7188 121.1484,344.5703 Q121.7656,343.4219 122.8594,342.8047 Q123.9531,342.1875 125.1875,342.1875 Q125.9219,342.1875 126.5703,342.3516 Q127.2188,342.5156 127.7656,342.875 Z " fill="#000000"/><text fill="#000000" font-family="sans-serif" font-size="14" lengthAdjust="spacing" textLength="36" x="139" y="352.7285">ToM1</text><line style="stroke:#181818;stroke-width:0.5;" x1="111" x2="177" y1="363" y2="363"/><line style="stroke:#181818;stroke-width:0.5;" x1="111" x2="177" y1="371" y2="371"/></g><!--class ToM2--><g id="elem_ToM2"><rect fill="#F1F1F1" height="48" id="ToM2" rx="2.5" ry="2.5" style="stroke:#181818;stroke-width:0.5;" width="68" x="213" y="331"/><ellipse cx="228" cy="347" fill="#ADD1B2" rx="11" ry="11" style="stroke:#181818;stroke-width:1.0;"/><path d="M230.7656,342.875 Q230.9219,342.6563 231.1094,342.5469 Q231.2969,342.4375 231.5156,342.4375 Q231.8906,342.4375 232.125,342.6953 Q232.3594,342.9531 232.3594,343.5625 L232.3594,345.0156 Q232.3594,345.625 232.125,345.8906 Q231.8906,346.1563 231.5156,346.1563 Q231.1719,346.1563 230.9688,345.9531 Q230.7656,345.7656 230.6563,345.25 Q230.6094,344.8906 230.4219,344.7031 Q230.0938,344.3281 229.4844,344.1094 Q228.875,343.8906 228.25,343.8906 Q227.4844,343.8906 226.8516,344.2188 Q226.2188,344.5469 225.7266,345.2969 Q225.2344,346.0469 225.2344,347.0781 L225.2344,348.1719 Q225.2344,349.4063 226.125,350.2266 Q227.0156,351.0469 228.6094,351.0469 Q229.5469,351.0469 230.2031,350.7969 Q230.5938,350.6406 231.0156,350.2031 Q231.2813,349.9375 231.4297,349.8594 Q231.5781,349.7813 231.7813,349.7813 Q232.1094,349.7813 232.3672,350.0391 Q232.625,350.2969 232.625,350.6406 Q232.625,350.9844 232.2813,351.3906 Q231.7813,351.9688 230.9844,352.2969 Q229.9063,352.75 228.6094,352.75 Q227.0938,352.75 225.8906,352.125 Q224.9063,351.625 224.2188,350.5547 Q223.5313,349.4844 223.5313,348.2031 L223.5313,347.0469 Q223.5313,345.7188 224.1484,344.5703 Q224.7656,343.4219 225.8594,342.8047 Q226.9531,342.1875 228.1875,342.1875 Q228.9219,342.1875 229.5703,342.3516 Q230.2188,342.5156 230.7656,342.875 Z " fill="#000000"/><text fill="#000000" font-family="sans-serif" font-size="14" lengthAdjust="spacing" textLength="36" x="242" y="352.7285">ToM2</text><line style="stroke:#181818;stroke-width:0.5;" x1="214" x2="280" y1="363" y2="363"/><line style="stroke:#181818;stroke-width:0.5;" x1="214" x2="280" y1="371" y2="371"/></g><!--reverse link Smuggle-and-seek Game to Container--><g id="link_Smuggle-and-seek Game_Container"><path codeLine="4" d="M170.7045,64.1486 C155.7145,81.8086 142.86,96.94 127.8,114.68 " fill="none" id="Smuggle-and-seek Game-backto-Container" style="stroke:#181818;stroke-width:1.0;"/><polygon fill="#181818" points="178.47,55,171.5377,56.9858,170.7045,64.1486,177.6368,62.1628,178.47,55" style="stroke:#181818;stroke-width:1.0;"/><text fill="#000000" font-family="sans-serif" font-size="13" lengthAdjust="spacing" textLength="20" x="110.1888" y="104.34">0..*</text></g><!--reverse link Smuggle-and-seek Game to Smuggle-and-seek Player--><g id="link_Smuggle-and-seek Game_Smuggle-and-seek Player"><path codeLine="5" d="M225.2955,64.1486 C240.2855,81.8086 253.14,96.94 268.2,114.68 " fill="none" id="Smuggle-and-seek Game-backto-Smuggle-and-seek Player" style="stroke:#181818;stroke-width:1.0;"/><polygon fill="#181818" points="217.53,55,218.3632,62.1628,225.2955,64.1486,224.4623,56.9858,217.53,55" style="stroke:#181818;stroke-width:1.0;"/><text fill="#000000" font-family="sans-serif" font-size="13" lengthAdjust="spacing" textLength="7" x="265.5807" y="104.1852">2</text></g><!--reverse link Smuggle-and-seek Player to Smuggler agent--><g id="link_Smuggle-and-seek Player_Smuggler agent"><path codeLine="6" d="M288,181 C288,198.66 288,204.94 288,222.68 " fill="none" id="Smuggle-and-seek Player-backto-Smuggler agent" style="stroke:#181818;stroke-width:1.0;"/><polygon fill="none" points="288,163,282,181,294,181,288,163" style="stroke:#181818;stroke-width:1.0;"/></g><!--reverse link Smuggle-and-seek Player to Customs agent--><g id="link_Smuggle-and-seek Player_Customs agent"><path codeLine="7" d="M338.9437,172.7298 C366.5237,190.4498 389.35,205.11 416.98,222.86 " fill="none" id="Smuggle-and-seek Player-backto-Customs agent" style="stroke:#181818;stroke-width:1.0;"/><polygon fill="none" points="323.8,163,335.7005,177.7777,342.187,167.6818,323.8,163" style="stroke:#181818;stroke-width:1.0;"/></g><!--reverse link Smuggle-and-seek Player to Strategy--><g id="link_Smuggle-and-seek Player_Strategy"><path codeLine="8" d="M247.0875,170.1159 C223.1075,187.7759 199.78,204.94 175.68,222.68 " fill="none" id="Smuggle-and-seek Player-backto-Strategy" style="stroke:#181818;stroke-width:1.0;"/><polygon fill="#181818" points="256.75,163,249.5468,163.3371,247.0875,170.1159,254.2907,169.7788,256.75,163" style="stroke:#181818;stroke-width:1.0;"/></g><!--reverse link Strategy to ToM0--><g id="link_Strategy_ToM0"><path codeLine="9" d="M109.1061,283.9094 C91.9461,301.5694 80.9,312.94 63.66,330.68 " fill="none" id="Strategy-backto-ToM0" style="stroke:#181818;stroke-width:1.0;"/><polygon fill="none" points="121.65,271,104.803,279.7281,113.4093,288.0906,121.65,271" style="stroke:#181818;stroke-width:1.0;"/></g><!--reverse link Strategy to ToM1--><g id="link_Strategy_ToM1"><path codeLine="10" d="M144,289 C144,306.66 144,312.94 144,330.68 " fill="none" id="Strategy-backto-ToM1" style="stroke:#181818;stroke-width:1.0;"/><polygon fill="none" points="144,271,138,289,150,289,144,271" style="stroke:#181818;stroke-width:1.0;"/></g><!--reverse link Strategy to ToM2--><g id="link_Strategy_ToM2"><path codeLine="11" d="M178.8939,283.9094 C196.0539,301.5694 207.1,312.94 224.34,330.68 " fill="none" id="Strategy-backto-ToM2" style="stroke:#181818;stroke-width:1.0;"/><polygon fill="none" points="166.35,271,174.5907,288.0906,183.197,279.7281,166.35,271" style="stroke:#181818;stroke-width:1.0;"/></g><!--SRC=[Iyv9B2vM22ufIYn9JQ_aub8ApYrDJyz9rKtCIz4jJatDLd1Fp4rLKj3IJT5LK3BGqzDIKd3Epoj9pCnBBIAWEgO411KKZ1HYIfGKCDK6v2HMfXOfSU6KKR2f0Hi4bIzII4nFpIiXGeDpQN59VcunOVLWXy9z3sD0Z0d9zpN053B453BY0W00]--></g></svg>